<?xml version="1.0" standalone="no"?>
<!DOCTYPE svg PUBLIC "-//W3C//DTD SVG 20010904//EN"
 "http://www.w3.org/TR/2001/REC-SVG-20010904/DTD/svg10.dtd">
<svg version="1.0" xmlns="http://www.w3.org/2000/svg"
 width="100.000000pt" height="100.000000pt" viewBox="0 0 100.000000 100.000000"
 preserveAspectRatio="xMidYMid meet">
<metadata>
Created by potrace 1.16, written by Peter Selinger 2001-2019
</metadata>
<g transform="translate(0.000000,100.000000) scale(0.015361,-0.023310)"
fill="#f9b17a" stroke="none">
<path d="M2783 3374 c-14 -14 -23 -35 -23 -54 l0 -30 -117 0 c-65 0 -124 -4
-131 -8 -9 -7 -12 -71 -10 -288 l3 -279 425 0 425 0 3 279 c2 217 -1 281 -10
288 -7 4 -66 8 -130 8 l-118 0 0 29 c0 16 -9 39 -19 52 -18 23 -26 24 -147 25
-121 2 -128 1 -151 -22z m275 -16 c7 -7 12 -25 12 -40 l0 -28 -140 0 -140 0 0
24 c0 55 3 56 134 56 82 0 126 -4 134 -12z m277 -253 c0 -82 -3 -158 -7 -167
-7 -17 -35 -18 -398 -18 l-390 0 -9 23 c-4 12 -9 88 -10 170 l-2 147 408 -2
408 -3 0 -150z m-492 -235 c5 -18 14 -20 91 -20 79 0 86 2 86 19 0 19 9 20
153 23 83 2 154 2 157 0 2 -2 4 -38 5 -80 l0 -77 -405 0 -405 0 -3 49 c-2 27
-1 63 2 80 l6 31 154 -3 c143 -3 154 -4 159 -22z"/>
</g>
</svg>
