<?xml version="1.0" standalone="no"?>
<!DOCTYPE svg PUBLIC "-//W3C//DTD SVG 20010904//EN"
 "http://www.w3.org/TR/2001/REC-SVG-20010904/DTD/svg10.dtd">
<svg version="1.0" xmlns="http://www.w3.org/2000/svg"
 width="600.000000pt" height="600.000000pt" viewBox="0 0 600.000000 600.000000"
 preserveAspectRatio="xMidYMid meet">
<metadata>
Created by potrace 1.16, written by Peter Selinger 2001-2019
</metadata>
<g transform="translate(0.000000,600.000000) scale(0.092166,-0.139860)"
fill="#000000" stroke="none">
<path d="M3095 3376 c-16 -16 -25 -36 -25 -55 l0 -30 -127 -3 -128 -3 0 -285
0 -285 425 0 425 0 0 285 0 285 -127 3 -128 3 0 28 c0 16 -9 39 -19 52 -18 23
-27 24 -145 27 -123 4 -126 3 -151 -22z m273 -18 c7 -7 12 -25 12 -40 l0 -28
-140 0 -140 0 0 28 c0 47 14 52 140 52 77 0 120 -4 128 -12z m270 -265 l-3
-168 -395 0 -395 0 -5 35 c-3 19 -4 95 -2 168 l3 132 400 0 399 0 -2 -167z
m-485 -223 c5 -18 14 -20 91 -20 79 0 86 2 86 20 0 18 9 19 155 22 124 2 155
0 157 -11 2 -7 2 -44 0 -82 l-4 -69 -399 0 c-348 0 -399 2 -400 15 -1 19 -1
110 0 133 1 16 14 17 155 14 143 -3 154 -4 159 -22z"/>
<path d="M3543 2273 c-42 -3 -56 -9 -73 -30 -20 -25 -20 -38 -20 -614 0 -568
1 -590 19 -608 26 -26 92 -35 204 -28 83 4 93 7 114 31 22 26 23 35 23 179 0
175 10 224 46 237 14 6 65 10 113 10 155 0 176 20 170 164 -5 117 -8 119 -157
127 -64 3 -125 10 -134 14 -45 18 -51 172 -8 207 19 16 43 18 189 19 192 0
259 9 278 35 8 12 13 49 13 110 0 121 -10 135 -106 145 -68 8 -569 9 -671 2z"/>
<path d="M2198 2258 c-9 -7 -22 -26 -28 -41 -6 -18 -10 -222 -10 -583 0 -609
1 -615 57 -631 15 -4 70 -8 121 -7 143 0 136 -16 142 312 3 147 9 273 13 280
14 21 35 14 60 -20 13 -18 72 -141 131 -273 73 -164 116 -249 137 -267 29 -28
30 -28 177 -28 147 0 149 0 173 26 l24 26 0 584 0 583 -23 23 c-20 21 -34 23
-131 26 -103 4 -109 3 -137 -21 l-29 -25 -5 -284 c-3 -155 -9 -289 -13 -296
-13 -19 -44 3 -68 50 -11 22 -68 149 -125 282 -58 134 -116 252 -130 266 -23
24 -30 25 -172 28 -110 2 -151 0 -164 -10z"/>
</g>
</svg>
