<!-- icon666.com - MILLIONS vector ICONS FREE --><svg id="Layer_1" enable-background="new 0 0 50 50" viewBox="0 0 50 50" xmlns="http://www.w3.org/2000/svg"><g><g><g><g><g><g><g enable-background="new"><g><path d="m49 31.61853-.00863 1.06194c0 .38749-.24986.76656-.75826 1.05981l-25.49618 14.82013c-1.00817.58607-2.64527.58607-3.66201 0l-17.31646-9.99721c-.50834-.29283-.76683-.68074-.75826-1.06865v-1.06152c0 .37865.25854.76656.75826 1.05939l17.32508 10.00605c1.00812.57766 2.65384.57766 3.65339-.00841l25.50481-14.82055c.5084-.29283.75826-.6719.75826-1.05098z" fill="#9da9c1"></path></g><g><path d="m48.23682 30.5525c1.01225.58442 1.01769 1.53087.00653 2.11849l-25.5025 14.82043c-1.00552.58435-2.64512.58756-3.65737.00314l-17.32103-10.00029c-1.01223-.58442-1.01204-1.53414-.00651-2.11849l25.5025-14.82043c1.01116-.58762 2.64512-.58756 3.65735-.00315z" fill="#e3e7f0"></path></g></g></g><g><g enable-background="new"><g><path d="m41.02045 27.2589c.14543.08396.14614.22795.00168.3119-.15155.08807-.39304.08401-.53846.00004l-4.39069-2.53497c-.15236-.08796-.15324-.22383-.00169-.3119.14446-.08395.38611-.08801.53847-.00004z" fill="#9da9c1"></path></g><g><path d="m13.18175 40.84455c.49076.28334.49342.7437.00148 1.02959-.4877.28342-1.28247.28338-1.77323.00004-.49073-.28332-.49341-.74369-.00571-1.02711.49194-.28589 1.28673-.28584 1.77746-.00252z" fill="#9da9c1"></path></g><g><path d="m47.55188 32.31878-23.79184 13.8263-19.76361-11.41053 23.79183-13.8263z" fill="#4c5671"></path></g></g></g></g></g></g></g><g><g><path d="m25.32495 25.3283 2.59546 1.49849-2.70134 1.56985-2.59546-1.49849c-.31928-.18434-.32105-.46963-.00407-.65384l1.56608-.91011c.31698-.18421.82004-.19024 1.13933-.0059z" fill="#fe91ab"></path></g><path d="m22.62356 26.89774c-.16068-.09216-.24093-.2111-.24063-.32925l-.00128.46079c-.0003.11815.07995.2363.24063.32925l2.59548 1.49815.00128-.46z" fill="#ed5d71"></path><g enable-background="new"><path d="m36.73029 32.57686-1.56599.91055c-.31704.18353-.81987.17802-1.12883-.00079l-8.81632-5.08994-.00138.46 8.81633 5.09073c.30906.17801.81189.18431 1.12883 0l1.56609-.91055c.15881-.09216.23768-.21267.23798-.3324l.00128-.46c-.00031.11973-.07917.24024-.23799.3324z" fill="#b4bed7"></path><g><path d="m36.73678 31.9169c.30899.17839.31054.47578-.00645.65999l-1.56607.9101c-.31699.18422-.81984.17816-1.12883-.00024l-8.81633-5.09011 2.70135-1.56985z" fill="#e3e7f0"></path></g></g><g><path d="m27.23415 30.56697-2.69781 1.56771-2.61242-1.50367c-.30927-.18119-.30927-.46912 0-.65031l1.56745-.91741c.30921-.18119.83176-.18119 1.14097 0z" fill="#7bb1ff"></path></g><path d="m21.92588 30.63288c-.15547-.08979-.23315-.20952-.23276-.32925l-.00128.46c-.00039.11973.07729.23945.23276.32925l2.60572 1.50446.00128-.46z" fill="#5793fb"></path><g enable-background="new"><path d="m36.03261 36.31121-1.5655.90976c-.307.1788-.82046.1788-1.12943 0l-8.80599-5.08364-.00138.46 8.80609 5.08443c.30896.17801.82233.17801 1.12943-.00079l1.5655-.90898c.15872-.09295.23758-.21346.23798-.33318l.00128-.46c-.0004.11974-.07926.24025-.23798.3324z" fill="#b4bed7"></path><g><path d="m36.03905 35.65134c.30897.17838.31054.47577-.00645.65999l-1.56552.90978c-.307.17841-.82041.17847-1.12938.00009l-8.80603-5.08416 2.70135-1.56985z" fill="#e3e7f0"></path></g></g><g><path d="m18.18241 29.47909 2.59546 1.49849-2.70134 1.56985-2.59546-1.49849c-.31929-.18434-.31052-.47575.00646-.65996l1.56553-.90979c.307-.17841.81006-.18444 1.12935-.0001z" fill="#ffdd94" style="fill: rgb(48, 230, 45);"></path></g><path d="m15.48104 31.04877c-.15803-.09137-.23571-.20873-.23542-.3261l-.00128.46c-.0003.11815.07739.23552.23542.3261l2.59548 1.49894.00128-.46z" fill="#febb61" style="fill: rgb(31, 152, 68);"></path><g enable-background="new"><path d="m29.59781 36.72159-1.5656.90976c-.31694.18431-.83031.18431-1.13937.0063l-8.81633-5.08994-.00128.46 8.81633 5.08994c.30896.1788.82243.1788 1.13937-.00552l1.5655-.90976c.15261-.089.22892-.20716.22931-.32531l.00128-.46c-.00039.11816-.07669.23631-.22921.32453z" fill="#b4bed7"></path><g><path d="m29.59424 36.06769c.30899.17839.31054.47578.00354.65418l-1.56552.90978c-.31699.18421-.83039.18428-1.13938.00589l-8.81633-5.09011 2.70135-1.56985z" fill="#d3dbea"></path></g></g><g><path d="m17.49526 33.20741 2.60573 1.50442-2.70134 1.56985-2.60573-1.50442c-.30901-.17841-.32115-.46965-.00358-.6542l1.5655-.90977c.31701-.18423.83041-.18429 1.13942-.00588z" fill="#96d696" style="fill: rgb(236, 177, 75);"></path></g><path d="m14.79389 34.77762c-.15675-.09058-.23709-.21031-.23679-.33004l-.00128.46c-.00029.11973.08005.23945.23679.33004l2.60572 1.50446.00128-.46z" fill="#5faf5f" style="fill: rgb(219, 135, 57);"></path><g enable-background="new"><path d="m28.90063 40.45595-1.5655.90976c-.31753.18431-.82046.1788-1.12943 0l-8.80599-5.08364-.00138.46 8.80609 5.08364c.30897.1788.8118.1851 1.12933 0l1.5656-.90976c.15872-.09216.23758-.21267.23788-.3324l.00138-.46079c-.0004.12052-.07927.24103-.23798.33319z" fill="#b4bed7"></path><g><path d="m28.90706 39.796c.30897.17838.31054.47577-.00645.65999l-1.56552.90978c-.31754.18454-.82041.17847-1.12938.00008l-8.80603-5.08416 2.70135-1.56985z" fill="#d3dbea"></path></g></g><g fill="#fff"><path d="m27.92188 27.98931-.69701.40557 7.24089 4.18857.18618.03743.64461-.37424z" fill="#fff"></path><path d="m26.53676 32.13531 7.22498 4.18015.19694.03789.63946-.37235-7.36391-4.25079z" fill="#fff"></path><path d="m28.01544 36.3178-7.23621-4.17781-.69794.4051 7.2334 4.18577.12584.03321.00795-.13332.07859.13098.62636-.36394-.03087-.01824.07859-.05099z" fill="#fff"></path><path d="m19.40533 36.27991 7.23013 4.18249.18759.03696.64367-.3733-7.36438-4.25172z" fill="#fff"></path></g></g><g><g><g><g><g enable-background="new"><g><path d="m19.97474 17.81955-.00926 3.76468c0 .41644-.26824.8234-.81402 1.13776l-6.67863 3.88527c-1.08232.62873-2.83057.62873-3.92208 0l-6.72493-3.88527c-.54579-.31436-.82328-.7308-.82328-1.14679l.00926-3.77416c0 .41599.2775.83243.82328 1.14679l6.72487 3.88527c1.09152.62918 2.83982.62918 3.92214 0l6.68789-3.88527c.53652-.30488.80476-.72132.80476-1.12828z" fill="#3a53d0"></path></g><g><path d="m19.15982 16.67667c1.0867.62741 1.08649 1.64698.00669 2.27449l-6.68314 3.88382c-1.07948.62732-2.83393.62745-3.92063.00004l-6.72688-3.88377c-1.08668-.6274-1.09811-1.64705-.01863-2.27438l6.68314-3.88382c1.07979-.62751 2.84589-.62755 3.93257-.00016z" fill="#5793fb"></path></g><g><path d="m15.97633 17.09451c.68745.3969.68731 1.04188.00424 1.43884l-4.22775 2.4569c-.68288.39684-1.79274.39692-2.48019.00002l-4.25543-2.45686c-.68743-.39689-.69466-1.04193-.01179-1.43877l4.22775-2.4569c.68308-.39696 1.80031-.39699 2.48774-.0001z" fill="#3a53d0"></path></g></g></g><g><g><g><path d="m18.52704 21.01584c-.23366.1349-.42287.46239-.42209.73673.00076.26827.1912.37687.42486.24197s.4229-.46271.42214-.73098c-.00078-.27434-.19125-.38262-.42491-.24772z" fill="#7bb1ff"></path></g><g><path d="m17.06669 21.85897c-.23366.1349-.4229.46241-.42212.73675.00076.26827.19123.37685.4249.24195.23363-.13489.42287-.46269.42211-.73096-.00078-.27434-.19125-.38263-.42489-.24774z" fill="#7bb1ff"></path></g><g><path d="m15.60632 22.70212c-.23366.1349-.4229.46241-.42212.73675.00076.26827.19123.37685.4249.24195.23851-.13771.42775-.46552.42699-.73379-.00078-.27434-.19125-.38262-.42977-.24491z" fill="#7bb1ff"></path></g><g><path d="m14.1508 23.54247c-.23363.13489-.42775.46521-.42698.73955.00076.26827.19612.37403.42975.23915.23366-.1349.4229-.46271.42214-.73098-.00078-.27435-.19125-.38263-.42491-.24772z" fill="#7bb1ff"></path></g><g><path d="m12.69046 24.38559c-.23366.13491-.4229.46241-.42212.73675.00076.26827.19123.37685.4249.24195.23366-.13491.42287-.4627.42211-.73096-.00079-.27434-.19123-.38264-.42489-.24774z" fill="#7bb1ff"></path></g></g><g><g><path d="m2.4511 21.01584c.23366.1349.42287.46239.42209.73673-.00076.26827-.1912.37687-.42486.24197s-.4229-.46271-.42214-.73098c.00077-.27434.19125-.38262.42491-.24772z" fill="#7bb1ff"></path></g><g><path d="m3.91144 21.85897c.23366.1349.4229.46241.42212.73675-.00076.26827-.19123.37685-.4249.24195-.23363-.13489-.42287-.46269-.42211-.73096.00079-.27434.19126-.38263.42489-.24774z" fill="#7bb1ff"></path></g><g><path d="m5.37182 22.70212c.23366.1349.4229.46241.42212.73675-.00076.26827-.19123.37685-.4249.24195-.23852-.13771-.42775-.46552-.42699-.73379.00078-.27434.19125-.38262.42977-.24491z" fill="#7bb1ff"></path></g><g><path d="m6.82734 23.54247c.23363.13489.42775.46521.42697.73955-.00076.26827-.19612.37403-.42975.23915-.23366-.1349-.4229-.46271-.42214-.73098.00078-.27435.19126-.38263.42492-.24772z" fill="#7bb1ff"></path></g><g><path d="m8.28768 24.38559c.23366.13491.4229.46241.42212.73675-.00076.26827-.19123.37685-.4249.24195-.23366-.13491-.42287-.4627-.42211-.73096.00079-.27434.19123-.38264.42489-.24774z" fill="#7bb1ff"></path></g></g></g></g><g><g><g enable-background="new"><g><path d="m19.39205 13.6651-.00869 3.53343c0 .39086-.25176.77282-.76402 1.06787l-6.26839 3.64662c-1.01583.59011-2.6567.59011-3.68117 0l-6.31185-3.64662c-.51226-.29505-.77271-.68591-.77271-1.07635l.00869-3.54233c0 .39044.26045.7813.77271 1.07635l6.31179 3.64662c1.02447.59053 2.66539.59053 3.68122 0l6.27708-3.64662c.50358-.28616.75534-.67702.75534-1.05897z" fill="#4c5671"></path></g></g></g></g></g><g><g><g><g enable-background="new"><g><path d="m19.97474 12.15834-.00926 3.76468c0 .41644-.26824.8234-.81402 1.13776l-6.67863 3.88527c-1.08232.62873-2.83057.62873-3.92208 0l-6.72493-3.88527c-.54579-.31436-.82328-.7308-.82328-1.14679l.00926-3.77416c0 .41599.2775.83243.82328 1.14679l6.72487 3.88527c1.09152.62918 2.83982.62918 3.92214 0l6.68789-3.88527c.53652-.30489.80476-.72133.80476-1.12828z" fill="#3a53d0"></path></g><g><path d="m19.15982 11.01546c1.0867.62741 1.08649 1.64698.00669 2.27449l-6.68314 3.88382c-1.07948.62732-2.83393.62745-3.92063.00004l-6.72688-3.88377c-1.08668-.62739-1.09811-1.64705-.01863-2.27437l6.68314-3.88382c1.07979-.62751 2.84589-.62755 3.93257-.00016z" fill="#5793fb"></path></g><g><path d="m15.97633 11.4333c.68745.3969.68731 1.04188.00424 1.43884l-4.22775 2.4569c-.68288.39684-1.79274.39692-2.48019.00003l-4.25543-2.45687c-.68743-.39689-.69466-1.04192-.01179-1.43877l4.22775-2.4569c.68308-.39696 1.80031-.39699 2.48774-.0001z" fill="#3a53d0"></path></g></g></g><g><g><g><path d="m18.52704 15.35463c-.23366.1349-.42287.46239-.42209.73673.00076.26827.1912.37687.42486.24197s.4229-.46271.42214-.73098c-.00078-.27435-.19125-.38263-.42491-.24772z" fill="#7bb1ff"></path></g><g><path d="m17.06669 16.19776c-.23366.1349-.4229.46241-.42212.73675.00076.26827.19123.37685.4249.24195.23363-.13489.42287-.46269.42211-.73096-.00078-.27435-.19125-.38263-.42489-.24774z" fill="#7bb1ff"></path></g><g><path d="m15.60632 17.0409c-.23366.1349-.4229.46241-.42212.73675.00076.26827.19123.37685.4249.24195.23851-.13771.42775-.46552.42699-.73379-.00078-.27433-.19125-.38261-.42977-.24491z" fill="#7bb1ff"></path></g><g><path d="m14.1508 17.88125c-.23363.13489-.42775.46521-.42698.73955.00076.26827.19612.37403.42975.23915.23366-.1349.4229-.46271.42214-.73098-.00078-.27434-.19125-.38262-.42491-.24772z" fill="#7bb1ff"></path></g><g><path d="m12.69046 18.72438c-.23366.13491-.4229.46241-.42212.73675.00076.26827.19123.37685.4249.24195.23366-.13491.42287-.4627.42211-.73096-.00079-.27435-.19123-.38265-.42489-.24774z" fill="#7bb1ff"></path></g></g><g><g><path d="m2.4511 15.35463c.23366.1349.42287.46239.42209.73673-.00076.26827-.1912.37687-.42486.24197s-.4229-.46271-.42214-.73098c.00077-.27435.19125-.38263.42491-.24772z" fill="#7bb1ff"></path></g><g><path d="m3.91144 16.19776c.23366.1349.4229.46241.42212.73675-.00076.26827-.19123.37685-.4249.24195-.23363-.13489-.42287-.46269-.42211-.73096.00079-.27435.19126-.38263.42489-.24774z" fill="#7bb1ff"></path></g><g><path d="m5.37182 17.0409c.23366.1349.4229.46241.42212.73675-.00076.26827-.19123.37685-.4249.24195-.23852-.13771-.42775-.46552-.42699-.73379.00078-.27433.19125-.38261.42977-.24491z" fill="#7bb1ff"></path></g><g><path d="m6.82734 17.88125c.23363.13489.42775.46521.42697.73955-.00076.26827-.19612.37403-.42975.23915-.23366-.1349-.4229-.46271-.42214-.73098.00078-.27434.19126-.38262.42492-.24772z" fill="#7bb1ff"></path></g><g><path d="m8.28768 18.72438c.23366.13491.4229.46241.42212.73675-.00076.26827-.19123.37685-.4249.24195-.23366-.13491-.42287-.4627-.42211-.73096.00079-.27435.19123-.38265.42489-.24774z" fill="#7bb1ff"></path></g></g></g></g><g><g><g enable-background="new"><g><path d="m19.39205 8.00388-.00869 3.53343c0 .39086-.25176.77282-.76402 1.06787l-6.26839 3.64662c-1.01583.59011-2.6567.59011-3.68117 0l-6.31185-3.64662c-.51226-.29505-.77271-.68591-.77271-1.07635l.00869-3.54233c0 .39044.26045.7813.77271 1.07635l6.31179 3.64662c1.02447.59053 2.66539.59053 3.68122 0l6.27708-3.64662c.50358-.28615.75534-.67701.75534-1.05897z" fill="#4c5671"></path></g></g></g></g></g><g><g><g><g enable-background="new"><g><path d="m19.97474 6.49712-.00926 3.76468c0 .41644-.26824.8234-.81402 1.13776l-6.67863 3.88527c-1.08232.62873-2.83057.62873-3.92208 0l-6.72493-3.88527c-.54579-.31436-.82328-.7308-.82328-1.14679l.00925-3.77417c0 .41599.2775.83243.82328 1.14679l6.72487 3.88527c1.09152.62918 2.83982.62918 3.92214 0l6.68789-3.88527c.53653-.30487.80477-.72131.80477-1.12827z" fill="#3a53d0"></path></g><g><path d="m19.15982 5.35424c1.0867.62741 1.08649 1.64698.00669 2.27449l-6.68314 3.88382c-1.07947.62733-2.83393.62745-3.92063.00004l-6.72688-3.88376c-1.08668-.6274-1.09811-1.64706-.01863-2.27438l6.68314-3.88382c1.07979-.62751 2.84589-.62755 3.93257-.00016z" fill="#5793fb"></path></g><g><path d="m15.97633 5.77208c.68745.3969.68731 1.04188.00424 1.43884l-4.22775 2.4569c-.68288.39684-1.79274.39692-2.48019.00003l-4.25543-2.45687c-.68743-.39688-.69466-1.04192-.01179-1.43876l4.22775-2.4569c.68308-.39696 1.80031-.39699 2.48774-.0001z" fill="#3a53d0"></path></g></g></g><g><g><g><path d="m18.52704 9.69341c-.23366.1349-.42287.46239-.42209.73673.00076.26827.1912.37687.42486.24197.23366-.13491.4229-.46271.42214-.73098-.00078-.27434-.19125-.38262-.42491-.24772z" fill="#7bb1ff"></path></g><g><path d="m17.06669 10.53654c-.23366.13491-.4229.46241-.42212.73675.00076.26827.19123.37685.4249.24195.23363-.13489.42287-.4627.42211-.73096-.00078-.27435-.19125-.38262-.42489-.24774z" fill="#7bb1ff"></path></g><g><path d="m15.60632 11.37969c-.23366.13491-.4229.46241-.42212.73675.00076.26827.19123.37685.4249.24195.23851-.13771.42775-.46552.42699-.73378-.00078-.27435-.19125-.38263-.42977-.24492z" fill="#7bb1ff"></path></g><g><path d="m14.1508 12.22004c-.23363.13489-.42775.46521-.42698.73955.00076.26827.19612.37403.42975.23914.23366-.1349.4229-.46271.42214-.73098-.00078-.27434-.19125-.38262-.42491-.24771z" fill="#7bb1ff"></path></g><g><path d="m12.69046 13.06316c-.23366.1349-.4229.46241-.42212.73675.00076.26827.19123.37685.4249.24195s.42287-.4627.42211-.73096c-.00079-.27434-.19123-.38264-.42489-.24774z" fill="#7bb1ff"></path></g></g><g><g><path d="m2.4511 9.69341c.23366.1349.42287.46239.42209.73673-.00076.26827-.1912.37687-.42486.24197-.23366-.13491-.4229-.46271-.42214-.73098.00077-.27434.19125-.38262.42491-.24772z" fill="#7bb1ff"></path></g><g><path d="m3.91144 10.53654c.23366.13491.4229.46241.42212.73675-.00076.26827-.19123.37685-.4249.24195-.23363-.13489-.42287-.4627-.42211-.73096.00079-.27435.19126-.38262.42489-.24774z" fill="#7bb1ff"></path></g><g><path d="m5.37182 11.37969c.23366.13491.4229.46241.42212.73675-.00076.26827-.19123.37685-.4249.24195-.23852-.13771-.42775-.46552-.42699-.73378.00078-.27435.19125-.38263.42977-.24492z" fill="#7bb1ff"></path></g><g><path d="m6.82734 12.22004c.23363.13489.42775.46521.42697.73955-.00076.26827-.19612.37403-.42975.23914-.23366-.1349-.4229-.46271-.42214-.73098.00078-.27434.19126-.38262.42492-.24771z" fill="#7bb1ff"></path></g><g><path d="m8.28768 13.06316c.23366.1349.4229.46241.42212.73675-.00076.26827-.19123.37685-.4249.24195s-.42287-.4627-.42211-.73096c.00079-.27434.19123-.38264.42489-.24774z" fill="#7bb1ff"></path></g></g></g></g></g></g><g><g enable-background="new"><g><path d="m47.78584 15.50768-.02715 9.2081c0 .30313-.10859.51567-.28054.61532l-1.59728.9275c.17648-.09942.28054-.31219.28054-.61532l.02715-9.21251c.00453-.6109-.42533-1.35303-.95926-1.66058l-8.01348-4.62449c-.26698-.15377-.50678-.16747-.68326-.06783l1.59273-.92772c.17648-.09942.42083-.08595.68778.06805l8.01351 4.6289c.52939.30313.95926 1.04968.95926 1.66058z" fill="#96d696" style="fill: rgb(236, 177, 75);"></path></g><g><path d="m37.21683 10.14506c-.53157-.3069-.96343-.06069-.96516.55004l-.02611 9.20877c-.00173.61073.42732 1.35381.95889 1.66071l8.01397 4.62687c.53157.3069.96342.06086.96515-.54986l.02611-9.20877c.00173-.61072-.42731-1.35398-.95888-1.66088z" fill="#77cb77" style="fill: rgb(255, 198, 77);"></path></g></g></g><g><g><path d="m39.28339 17.45851-.00621 2.1895-1.73161-.99975.0062-2.1895z" fill="#fff"></path></g><g><path d="m41.96152 17.54059-.01035 3.65125-1.73161-.99975.01035-3.65125z" fill="#fff"></path></g><g><path d="m44.63966 17.62248-.0145 5.11319-1.73161-.99975.0145-5.11319z" fill="#fff"></path></g></g></g></svg>